<svg width="1978" height="945" viewBox="0 0 1978 945" fill="none" xmlns="http://www.w3.org/2000/svg">
<path d="M798.728 444.374C798.034 443.614 797.34 442.556 796.712 441.234C796.084 439.912 795.754 438.094 795.754 435.781C795.754 434.128 795.985 432.277 796.481 430.228C796.977 428.179 797.803 425.7 798.927 422.759L799.125 422.362L852.568 416.446L855.311 422.759C856.567 425.568 857.459 428.014 857.955 430.129C858.451 432.244 858.682 434.128 858.682 435.781C858.682 438.061 858.352 439.879 857.724 441.234C857.096 442.556 856.402 443.614 855.708 444.374V445.332H911.497V444.374C906.969 439.912 902.97 434.426 899.5 427.948C896.029 421.437 893.088 415.322 890.708 409.605L847.875 311.543H798.299V312.502C798.993 313.262 799.687 314.287 800.315 315.576C800.943 316.864 801.273 318.583 801.273 320.731C801.273 321.227 801.108 322.285 800.745 323.871C800.381 325.458 799.489 327.903 798.1 331.242L763.728 409.605C761.315 415.322 758.374 421.47 754.936 427.948C751.466 434.459 747.467 439.912 742.939 444.374V445.332H798.728V444.374ZM827.152 358.376L842.421 392.98L810.594 396.616L827.152 358.376Z" fill="white"/>
<path d="M974.756 444.374C971.352 441.201 969.137 436.045 968.08 428.906C967.022 421.767 966.493 413.604 966.493 404.449V371.96L1007.21 424.312C1007.77 425.204 1008.67 426.394 1009.86 427.848C1011.05 429.303 1012.24 430.889 1013.36 432.542C1014.48 434.194 1015.47 435.913 1016.33 437.698C1017.19 439.482 1017.62 441.069 1017.62 442.49C1017.62 443.382 1017.56 444.01 1017.42 444.407V445.365H1068.55V444.374C1065.15 441.201 1062.93 436.045 1061.88 428.906C1060.82 421.767 1060.29 413.604 1060.29 404.449V352.46C1060.29 343.272 1060.82 335.141 1061.88 328.003C1062.93 320.864 1065.15 315.708 1068.55 312.535V311.576H1013.79V312.535C1017.19 315.708 1019.41 320.897 1020.46 328.003C1021.52 335.141 1022.05 343.305 1022.05 352.46V384.552L981.531 332.564C980.837 331.671 979.912 330.481 978.788 329.027C977.664 327.573 976.507 325.986 975.384 324.334C974.26 322.681 973.268 320.963 972.409 319.178C971.55 317.393 971.153 315.807 971.153 314.386C971.153 313.493 971.219 312.865 971.351 312.469V311.51H920.024V312.469C923.428 315.642 925.643 320.831 926.7 327.936C927.758 335.075 928.287 343.239 928.287 352.394V404.383C928.287 413.571 927.758 421.701 926.7 428.84C925.643 435.979 923.428 441.135 920.024 444.308V445.266H974.756V444.374Z" fill="white"/>
<path d="M1102.66 445.63C1109.17 446.853 1116.01 447.448 1123.22 447.448H1130.46C1142.88 447.448 1152.6 445.795 1159.51 442.49C1166.45 439.185 1171.61 434.822 1174.98 429.402C1178.38 423.982 1180.43 417.834 1181.12 410.96C1181.82 404.085 1182.18 397.145 1182.18 390.138V352.46C1182.18 343.272 1182.71 335.142 1183.77 328.003C1184.83 320.864 1187.04 315.708 1190.44 312.535V311.576H1135.75V312.535C1139.15 315.708 1141.36 320.897 1142.42 328.003C1143.48 335.142 1144.01 343.305 1144.01 352.46V390.105C1144.01 393.542 1143.88 396.946 1143.58 400.317C1143.28 403.689 1142.49 406.762 1141.13 409.505C1139.78 412.249 1137.73 414.43 1134.99 416.116C1132.24 417.768 1128.31 418.594 1123.22 418.594C1119.98 418.594 1116.54 418.363 1112.94 417.933C1109.34 417.504 1105.74 416.677 1102.13 415.554C1098.53 414.397 1094.99 412.811 1091.52 410.761C1088.05 408.712 1084.98 406.101 1082.3 402.928L1081.25 403.127L1088.25 441.73C1091.36 443.118 1096.15 444.407 1102.66 445.63Z" fill="white"/>
<path d="M1341.29 325.887C1334.08 320.269 1325.65 316.137 1316.04 313.46C1306.42 310.783 1296.24 309.461 1285.5 309.461H1282.75C1271.85 309.461 1261.6 310.783 1251.98 313.46C1242.37 316.137 1233.97 320.269 1226.73 325.887C1219.53 331.506 1213.81 338.645 1209.55 347.304C1205.32 355.963 1203.17 366.209 1203.17 378.074V379.033C1203.17 390.898 1205.28 401.111 1209.55 409.704C1213.78 418.297 1219.53 425.403 1226.73 431.021C1233.94 436.64 1242.37 440.771 1251.98 443.448C1261.6 446.126 1271.85 447.448 1282.75 447.448H1285.5C1296.24 447.448 1306.42 446.126 1316.04 443.448C1325.65 440.771 1334.08 436.64 1341.29 431.021C1348.49 425.403 1354.21 418.297 1358.47 409.704C1362.7 401.111 1364.82 390.865 1364.82 379.033V378.074C1364.82 366.209 1362.7 355.963 1358.47 347.304C1354.21 338.645 1348.49 331.506 1341.29 325.887ZM1322.51 394.798C1320.6 399.689 1317.92 403.953 1314.45 407.522C1310.98 411.092 1306.82 413.835 1301.92 415.752C1297.03 417.669 1291.58 418.627 1285.5 418.627H1282.75C1276.67 418.627 1271.15 417.669 1266.2 415.752C1261.24 413.835 1257.04 411.092 1253.57 407.522C1250.1 403.953 1247.42 399.722 1245.51 394.798C1243.59 389.906 1242.63 384.453 1242.63 378.471C1242.63 372.621 1243.59 367.201 1245.51 362.21C1247.42 357.252 1250.1 353.022 1253.57 349.485C1257.04 345.982 1261.24 343.239 1266.2 341.256C1271.15 339.273 1276.67 338.281 1282.75 338.281H1285.5C1291.58 338.281 1297.07 339.273 1301.92 341.256C1306.82 343.239 1310.98 345.982 1314.45 349.485C1317.92 352.989 1320.6 357.219 1322.51 362.21C1324.43 367.168 1325.39 372.588 1325.39 378.471C1325.36 384.453 1324.4 389.873 1322.51 394.798Z" fill="white"/>
<path d="M1500.36 431.947C1505.75 426.989 1509.71 420.941 1512.36 413.901C1514.97 406.828 1516.29 398.896 1516.29 390.105V352.46C1516.29 343.272 1516.82 335.142 1517.88 328.003C1518.93 320.864 1521.15 315.708 1524.55 312.535V311.576H1469.82V312.535C1473.36 315.708 1475.61 320.897 1476.6 328.003C1477.59 335.142 1478.08 343.305 1478.08 352.46V390.105C1478.08 398.5 1475.54 404.944 1470.45 409.406C1465.36 413.868 1458.72 416.149 1450.52 416.281C1442.32 416.149 1435.68 413.868 1430.59 409.406C1425.5 404.944 1422.96 398.5 1422.96 390.105V352.46C1422.96 343.272 1423.48 335.142 1424.54 328.003C1425.6 320.864 1427.85 315.708 1431.22 312.535V311.576H1376.49V312.535C1379.89 315.708 1382.1 320.897 1383.16 328.003C1384.22 335.142 1384.75 343.305 1384.75 352.46V390.105C1384.75 398.896 1386.07 406.828 1388.68 413.901C1391.29 420.974 1395.29 426.989 1400.68 431.947C1406.07 436.904 1412.88 440.738 1421.14 443.415C1429.4 446.092 1439.18 447.414 1450.52 447.414C1461.86 447.414 1471.64 446.092 1479.9 443.415C1488.16 440.771 1494.97 436.937 1500.36 431.947Z" fill="white"/>
<path d="M1519.23 445.332H1575.02V444.374C1574.33 443.614 1573.63 442.556 1573.01 441.234C1572.38 439.912 1572.05 438.094 1572.05 435.781C1572.05 434.128 1572.28 432.277 1572.77 430.228C1573.27 428.179 1574.1 425.7 1575.22 422.759L1575.42 422.362L1628.86 416.446L1631.6 422.759C1632.86 425.568 1633.75 428.014 1634.25 430.129C1634.74 432.244 1634.98 434.128 1634.98 435.781C1634.98 438.061 1634.64 439.879 1634.02 441.234C1633.39 442.556 1632.69 443.614 1632 444.374V445.332H1687.79V444.374C1683.26 439.912 1679.26 434.426 1675.79 427.948C1672.32 421.437 1669.38 415.322 1667 409.605L1624.23 311.543H1574.59V312.502C1575.29 313.262 1575.98 314.287 1576.61 315.576C1577.24 316.864 1577.57 318.583 1577.57 320.731C1577.57 321.227 1577.4 322.285 1577.04 323.871C1576.67 325.458 1575.78 327.903 1574.39 331.242L1540.02 409.605C1537.61 415.322 1534.67 421.47 1531.23 427.948C1527.76 434.459 1523.76 439.912 1519.23 444.374V445.332ZM1603.44 358.376L1618.71 392.98L1586.89 396.616L1603.44 358.376Z" fill="white"/>
<path d="M1838.1 328.003C1839.16 320.864 1841.38 315.708 1844.78 312.535V311.576H1790.05V312.535C1793.45 315.708 1795.67 320.897 1796.72 328.003C1797.78 335.141 1798.31 343.305 1798.31 352.46V384.552L1757.79 332.564C1757.1 331.671 1756.17 330.481 1755.05 329.027C1753.92 327.573 1752.77 325.986 1751.64 324.334C1750.52 322.681 1749.53 320.963 1748.67 319.178C1747.81 317.393 1747.41 315.807 1747.41 314.386C1747.41 313.493 1747.48 312.865 1747.61 312.469V311.51H1696.28V312.469C1699.69 315.642 1701.9 320.831 1702.96 327.936C1704.02 335.075 1704.55 343.239 1704.55 352.394V404.383C1704.55 413.571 1704.02 421.701 1702.96 428.84C1701.9 435.979 1699.69 441.135 1696.28 444.308V445.266H1751.02V444.374C1747.61 441.201 1745.4 436.045 1744.34 428.906C1743.28 421.767 1742.75 413.604 1742.75 404.449V371.96L1783.47 424.312C1784.03 425.204 1784.93 426.394 1786.12 427.848C1787.31 429.303 1788.5 430.889 1789.62 432.542C1790.74 434.194 1791.73 435.913 1792.59 437.698C1793.45 439.482 1793.88 441.069 1793.88 442.49C1793.88 443.382 1793.82 444.01 1793.68 444.407V445.365H1844.81V444.374C1841.41 441.201 1839.2 436.045 1838.14 428.906C1837.08 421.767 1836.55 413.604 1836.55 404.449V352.46C1836.52 343.272 1837.05 335.141 1838.1 328.003Z" fill="white"/>
<path d="M834.125 585.731L835.448 586.227C839.182 582.228 844.041 579.187 850.023 577.204C856.005 575.188 861.822 574.197 867.54 574.197V606.256C866.482 606.752 863.871 607.479 859.773 608.536C855.675 609.561 850.783 610.09 845.065 610.09C829.366 610.09 816.741 606.091 807.09 598.059C797.472 590.061 792.647 578.427 792.647 563.191C792.647 546.038 797.638 532.652 807.619 523.034C817.6 513.417 831.514 508.624 849.329 508.624C853.427 508.624 858.021 509.054 863.111 509.946C868.201 510.839 873.257 512.194 878.347 514.045C883.437 515.895 888.295 518.209 892.923 521.018C897.55 523.828 901.549 527.166 904.953 531L906.275 530.504C905.383 521.018 904.49 511.599 903.598 502.246C902.706 492.892 901.813 483.44 900.921 473.888L899.599 473.657C897.649 474.78 895.368 475.441 892.79 475.574C890.212 475.739 887.568 475.805 884.891 475.805C882.214 475.805 877.719 475.21 871.374 473.987C865.028 472.764 856.798 472.169 846.652 472.169H843.446C830.093 472.169 817.336 473.954 805.206 477.491C793.077 481.027 782.401 486.513 773.114 493.884C763.86 501.287 756.49 510.74 751.069 522.241C745.649 533.743 742.906 547.36 742.906 563.125C742.906 576.312 745.186 588.045 749.714 598.357C754.242 608.635 760.687 617.361 768.95 624.533C777.245 631.705 787.26 637.125 799.026 640.827C810.792 644.528 823.979 646.379 838.587 646.379C852.667 646.379 866.614 644.76 880.429 641.554C894.245 638.348 908.093 633.357 922.007 626.615V625.425C920.586 623.971 919.462 622.451 918.669 620.831C917.876 619.212 917.248 617.129 916.785 614.552C916.322 611.974 916.025 608.768 915.86 604.901C915.694 601.034 915.595 596.142 915.595 590.193V579.353C915.595 573.404 915.694 568.545 915.86 564.777C916.025 561.01 916.355 557.837 916.785 555.259C917.215 552.681 917.843 550.599 918.669 548.979C919.462 547.393 920.586 545.839 922.007 544.418V543.228H834.026V585.731H834.125Z" fill="white"/>
<path d="M1119.15 598.753L1065.15 475.144H1002.55V476.334C1003.44 477.292 1004.3 478.581 1005.1 480.201C1005.89 481.82 1006.29 483.969 1006.29 486.712C1006.29 487.34 1006.05 488.695 1005.63 490.678C1005.2 492.694 1004.07 495.768 1002.29 499.965L958.958 598.753C955.917 605.991 952.215 613.692 947.853 621.889C943.49 630.085 938.433 636.993 932.749 642.612V643.801H1003.08V642.612C1002.19 641.653 1001.33 640.331 1000.54 638.646C999.742 636.96 999.346 634.679 999.346 631.771C999.346 629.689 999.643 627.342 1000.27 624.797C1000.9 622.219 1001.92 619.113 1003.34 615.411L1003.61 614.915L1071 607.446L1074.47 615.411C1076.06 618.947 1077.18 622.021 1077.81 624.698C1078.44 627.342 1078.73 629.722 1078.73 631.804C1078.73 634.679 1078.34 636.993 1077.51 638.679C1076.72 640.364 1075.86 641.686 1074.97 642.645V643.834H1145.3V642.645C1139.58 637.026 1134.56 630.118 1130.19 621.922C1125.86 613.692 1122.16 605.991 1119.15 598.753ZM1018.09 582.36L1038.94 534.172L1058.18 577.766L1018.09 582.36Z" fill="white"/>
<path d="M1347.5 611.048L1345.09 524.059C1344.92 522.142 1344.82 520.258 1344.82 518.407C1344.82 516.556 1344.82 514.673 1344.82 512.756C1344.82 505.848 1345.42 499.469 1346.58 493.586C1347.73 487.736 1350.38 481.985 1354.47 476.367V475.177H1303.15L1255.29 538.766L1207.7 475.177H1156.37V476.367C1160.47 481.985 1163.11 487.703 1164.27 493.487C1165.43 499.271 1166.02 505.683 1166.02 512.756C1166.02 514.673 1166.02 516.556 1166.02 518.407C1166.02 520.258 1165.92 522.142 1165.76 524.059L1163.34 611.048C1162.98 618.749 1162.32 625.293 1161.33 630.68C1160.34 636.067 1158.62 640.034 1156.1 642.612V643.801H1218.41V642.612C1215.89 640.034 1214.04 636.067 1212.79 630.68C1211.53 625.293 1211.1 618.749 1211.46 611.048L1213.05 553.474L1255.29 611.048L1297.79 553.474L1299.41 611.048C1299.78 618.749 1299.31 625.293 1298.09 630.68C1296.83 636.067 1294.98 640.034 1292.47 642.612V643.801H1354.77V642.612C1352.26 640.034 1350.54 636.067 1349.55 630.68C1348.49 625.293 1347.83 618.749 1347.5 611.048Z" fill="white"/>
<path d="M1373.41 476.367C1377.68 480.399 1380.49 486.877 1381.84 495.867C1383.16 504.856 1383.86 515.135 1383.86 526.703V592.242C1383.86 603.81 1383.2 614.089 1381.84 623.079C1380.52 632.068 1377.71 638.579 1373.41 642.578V643.768H1442.39V642.578C1438.13 638.579 1435.32 632.068 1433.96 623.079C1432.64 614.089 1431.95 603.81 1431.95 592.242V526.703C1431.95 515.135 1432.61 504.856 1433.96 495.867C1435.28 486.877 1438.13 480.366 1442.39 476.367V475.177H1373.41V476.367Z" fill="white"/>
<path d="M1579.29 476.367C1583.55 480.399 1586.36 486.877 1587.71 495.867C1589.04 504.857 1589.73 515.135 1589.73 526.703V567.19L1538.67 501.651C1537.77 500.527 1536.62 499.04 1535.2 497.189C1533.77 495.338 1532.35 493.388 1530.93 491.273C1529.51 489.191 1528.25 487.009 1527.2 484.762C1526.14 482.514 1525.61 480.498 1525.61 478.747C1525.61 477.623 1525.71 476.83 1525.88 476.334V475.144H1461.16V476.334C1465.43 480.366 1468.23 486.844 1469.59 495.834C1470.91 504.823 1471.61 515.102 1471.61 526.67V592.209C1471.61 603.777 1470.95 614.056 1469.59 623.046C1468.27 632.035 1465.46 638.546 1461.16 642.545V643.735H1530.14V642.545C1525.88 638.546 1523.07 632.035 1521.71 623.046C1520.39 614.056 1519.69 603.777 1519.69 592.209V551.26L1571.02 617.262C1571.72 618.385 1572.84 619.873 1574.36 621.724C1575.88 623.574 1577.34 625.557 1578.79 627.64C1580.21 629.722 1581.47 631.903 1582.52 634.151C1583.58 636.398 1584.11 638.414 1584.11 640.166C1584.11 641.29 1584.01 642.083 1583.85 642.579V643.768H1648.29V642.579C1644.03 638.579 1641.22 632.068 1639.87 623.079C1638.54 614.089 1637.85 603.81 1637.85 592.242V526.703C1637.85 515.135 1638.51 504.857 1639.87 495.867C1641.19 486.877 1644 480.366 1648.29 476.367V475.177H1579.29V476.367Z" fill="white"/>
<path d="M1756.83 585.731L1758.16 586.227C1761.89 582.228 1766.75 579.187 1772.73 577.204C1778.71 575.188 1784.53 574.197 1790.25 574.197V606.256C1789.19 606.752 1786.58 607.479 1782.48 608.536C1778.38 609.561 1773.49 610.09 1767.77 610.09C1752.07 610.09 1739.45 606.091 1729.8 598.059C1720.18 590.061 1715.35 578.427 1715.35 563.191C1715.35 546.038 1720.35 532.652 1730.33 523.034C1740.31 513.417 1754.22 508.624 1772.04 508.624C1776.13 508.624 1780.73 509.054 1785.82 509.946C1790.91 510.839 1795.96 512.194 1801.05 514.045C1806.14 515.895 1811 518.209 1815.63 521.018C1820.26 523.828 1824.26 527.166 1827.66 531L1828.98 530.504C1828.09 521.018 1827.2 511.599 1826.31 502.246C1825.41 492.892 1824.52 483.44 1823.63 473.888L1822.31 473.657C1820.36 474.78 1818.08 475.441 1815.5 475.574C1812.92 475.739 1810.28 475.805 1807.6 475.805C1804.92 475.805 1800.43 475.21 1794.08 473.987C1787.74 472.764 1779.51 472.169 1769.36 472.169H1766.15C1752.8 472.169 1740.04 473.954 1727.91 477.491C1715.78 481.027 1705.11 486.513 1695.82 493.884C1686.57 501.287 1679.2 510.74 1673.78 522.241C1668.36 533.743 1665.61 547.36 1665.61 563.125C1665.61 576.312 1667.89 588.045 1672.42 598.357C1676.95 608.635 1683.39 617.361 1691.66 624.533C1699.95 631.705 1709.97 637.125 1721.73 640.827C1733.5 644.528 1746.69 646.379 1761.29 646.379C1775.37 646.379 1789.32 644.76 1803.14 641.554C1816.95 638.348 1830.8 633.357 1844.71 626.615V625.425C1843.29 623.971 1842.17 622.451 1841.38 620.831C1840.58 619.212 1839.96 617.129 1839.49 614.552C1839.03 611.974 1838.73 608.768 1838.57 604.901C1838.4 601.034 1838.3 596.142 1838.3 590.193V579.353C1838.3 573.404 1838.4 568.545 1838.57 564.777C1838.73 561.01 1839.06 557.837 1839.49 555.259C1839.92 552.681 1840.55 550.599 1841.38 548.979C1842.17 547.393 1843.29 545.839 1844.71 544.418V543.228H1756.73V585.731H1756.83Z" fill="white"/>
<path d="M640.913 514.481V251.006L639.933 250.216C599.836 249.773 566.19 222.61 555.881 185.707L386.577 132.203L217.02 185.77C206.711 222.578 173.16 249.647 133.221 250.184L132.241 250.975V514.45C132.241 514.45 123.102 697.984 386.609 812.203C650.052 698.015 640.913 514.481 640.913 514.481Z" fill="white"/>
<path d="M625.545 511.951V264.383L624.628 263.655C586.966 263.244 555.344 237.725 545.668 203.067L386.577 150.227L227.265 203.099C217.589 237.694 186.062 263.118 148.527 263.624L147.61 264.383V511.951C147.61 511.951 139.008 684.386 386.577 791.711C634.114 684.355 625.545 511.951 625.545 511.951Z" fill="#701121"/>
<path d="M227.265 203.099C217.589 237.694 186.062 263.118 148.527 263.624L147.61 264.383V511.951C147.61 511.951 139.008 684.386 386.577 791.711V150.227L227.265 203.099Z" fill="#8B1825"/>
<path fill-rule="evenodd" clip-rule="evenodd" d="M452.066 333.698C459.877 339.453 463.798 342.362 471.609 348.276C468.605 357.857 467.118 362.632 464.114 372.087C471.925 366.3 475.846 363.359 483.657 357.478C491.499 363.423 495.357 366.458 503.168 372.593C500.227 362.822 498.677 357.984 495.736 348.276C503.515 342.299 507.468 339.295 515.247 333.192C505.602 333.255 500.764 333.318 491.12 333.382C488.116 323.737 486.661 318.93 483.657 309.381C480.653 319.025 479.166 323.895 476.226 333.477C466.549 333.571 461.711 333.635 452.066 333.698Z" fill="white"/>
<path fill-rule="evenodd" clip-rule="evenodd" d="M491.151 407.946C488.147 398.302 486.693 393.495 483.688 383.945C480.684 393.59 479.198 398.46 476.257 408.041C466.549 408.105 461.711 408.168 452.066 408.263C459.877 414.018 463.798 416.927 471.609 422.84C468.605 432.422 467.118 437.197 464.114 446.652C471.925 440.865 475.846 437.924 483.657 432.042C491.499 437.987 495.357 441.023 503.168 447.158C500.227 437.387 498.677 432.548 495.736 422.84C503.515 416.864 507.468 413.86 515.247 407.757C505.634 407.82 500.796 407.883 491.151 407.946Z" fill="white"/>
<path fill-rule="evenodd" clip-rule="evenodd" d="M491.151 482.48C488.147 472.835 486.693 468.028 483.688 458.479C480.684 468.123 479.198 472.993 476.257 482.575C466.549 482.638 461.711 482.701 452.066 482.796C459.877 488.551 463.798 491.46 471.609 497.374C468.605 506.955 467.118 511.73 464.114 521.185C471.925 515.398 475.846 512.457 483.657 506.576C491.499 512.521 495.357 515.556 503.168 521.691C500.227 511.92 498.677 507.082 495.736 497.374C503.515 491.397 507.468 488.393 515.247 482.29C505.634 482.353 500.796 482.416 491.151 482.48Z" fill="white"/>
<path fill-rule="evenodd" clip-rule="evenodd" d="M491.151 557.044C488.147 547.4 486.693 542.593 483.688 533.043C480.684 542.688 479.198 547.558 476.257 557.139C466.549 557.203 461.711 557.266 452.066 557.361C459.877 563.116 463.798 566.025 471.609 571.938C468.605 581.52 467.118 586.295 464.114 595.75C471.925 589.963 475.846 587.022 483.657 581.14C491.499 587.085 495.357 590.121 503.168 596.256C500.227 586.485 498.677 581.646 495.736 571.938C503.515 565.962 507.468 562.958 515.247 556.855C505.634 556.918 500.796 556.95 491.151 557.044Z" fill="white"/>
<path fill-rule="evenodd" clip-rule="evenodd" d="M467.34 607.924C381.36 607.924 311.696 538.229 311.696 452.281C311.696 366.332 381.391 296.637 467.34 296.637C471.419 296.637 475.467 296.858 479.451 297.143C457.063 287.119 432.271 281.49 406.12 281.49C306.984 281.49 226.601 361.873 226.601 461.008C226.601 560.143 306.984 640.526 406.12 640.526C450.296 640.526 490.74 624.526 522.014 598.058C505.002 604.414 486.598 607.924 467.34 607.924Z" fill="white"/>
</svg>
